<svg id="Layer_1" data-name="Layer 1" xmlns="http://www.w3.org/2000/svg" viewBox="0 0 164.13 54.86"><defs><style>.cls-1{fill:#07040a;}</style></defs><path class="cls-1" d="M3.76.65c-.55.28-1.11.14-1,1.11-.33-.14-.42,0-.51-.32-.14-.47-.47-.37-.74-.23s-.47.41-.47.83c.05,2.18.33,4.18.37,6.41s.05,3.85.05,6a7.6,7.6,0,0,1-1,.32c-.37.19-.65.42-.33.65s.19.88.47,1.07,1,0,1,.79c.09,1.81-.23,4.17-.14,6,.05,1.58.19,3.11.14,4.69s0,2.88,0,4.27.14,1.44.79,1.72,2.23.56,2.5,0,0-2,.24-2,.51,2.55.32,2.83c.23.56.47.74.74.23.33-.19.79,0,.84-.56a16.61,16.61,0,0,0,.18-2.22,5.88,5.88,0,0,1,.1-1.3,2.49,2.49,0,0,0,0-1.3,26,26,0,0,1-.37-3.76c-.09-1,.09-1.91,0-2.83a47.51,47.51,0,0,1-.41-6.18c0-.09.32-.09.51-.14a11.24,11.24,0,0,1,1.44-.28,5.24,5.24,0,0,0,1.67-.23c.6-.18.55-.46.09-.65s.18-.28.74-.51a5,5,0,0,0,1.53-.83c-.37-.42-.83-.28-2.13-.24s-2,0-3.16.1c-.65.09-.83,0-.88-.56C6,11.33,6.13,8.91,6,6.73a21.73,21.73,0,0,0-.19-2.41A10.68,10.68,0,0,1,7.94,4c1.12,0,2-.14,3.11-.14a17.4,17.4,0,0,0,3.16-.14,1.51,1.51,0,0,0,1.11-.65,2.35,2.35,0,0,1,1-1.44c.19-.09.47-.27.28-.46a.5.5,0,0,0-.46-.09c-1.54.18-3.11,0-4.64.28-1.35.23-2.74.14-4.09.27a11.63,11.63,0,0,1-2.32.14C5,1.25,4.09,1,3.76.65ZM12,15.27c-.19.33-.24.37-.42.46s-.65.28-.7,0,.28-.41.51-.51A1.47,1.47,0,0,1,12,15.27ZM22.38,1.35a11.42,11.42,0,0,0-5.2.6c-.37.14-.6.32-.23.7.23.18-.19.32-.05.55.51,0,1-.28,1.49-.28a1.23,1.23,0,0,1,.09.7,28.62,28.62,0,0,1-.09,3.48c-.09,2.46-.09,4.88-.23,7.34a28.38,28.38,0,0,0,.37,7.19c0,.42.14.79.14,1.21.09,2.08.09,4.22.18,6.31,0,.74-.18,1.44-.14,2.18a2.14,2.14,0,0,0,1.16,1.9A1.38,1.38,0,0,0,21.73,33a6.73,6.73,0,0,0,1.76,1.35,4.88,4.88,0,0,1,.19-.7c0-.13.09-.32.23-.27.79.09.61-.47.7-.89a29.93,29.93,0,0,0,.05-4.92c0-1.76-.38-3.48,0-5.19V22c-.14-.74.27-1.16.88-1.48a8.77,8.77,0,0,1,.65,1.35c1.25,3.15,2.55,6.26,4,9.32a8.81,8.81,0,0,1,.65,1.16A4.82,4.82,0,0,0,32.92,34a.51.51,0,0,0,.51,0c.55-.42,1-.19,1.44.23.23.23.46.18.65-.09,0-.1.14-.24.18-.24.47,0,.56-.28.61-.69a1.48,1.48,0,0,0-.1-1.07A12,12,0,0,1,35.42,30a3.47,3.47,0,0,0-.32-1c-.88-1.86-1.67-3.81-2.42-5.76a8.66,8.66,0,0,0-2-3.29c-.6-.6-1.21-1.25-1.86-1.81-.18-.14-.42-.42-.23-.61A3.24,3.24,0,0,1,30,16.62c0,.41-.46.51-.51.92a1.8,1.8,0,0,0,.79-.46A19.16,19.16,0,0,0,32.5,15.6a6.15,6.15,0,0,0,2.27-4.79c0-.51-.27-.92-.23-1.43a9.51,9.51,0,0,0-1-4.37,2.34,2.34,0,0,0-1.26-1.39,7.88,7.88,0,0,1-2.13-1.11,7.59,7.59,0,0,0-3.9-.89C25,1.53,23.68,1.53,22.38,1.35ZM24.1,3.43a7.68,7.68,0,0,1,2,.14,8.21,8.21,0,0,1,2.79,1.72,4.22,4.22,0,0,0,.65.42.61.61,0,0,1,.41.7,2.14,2.14,0,0,0,.23,1.16,1.18,1.18,0,0,1,.14.6,9.55,9.55,0,0,1-1.34,4,39.83,39.83,0,0,1-4.36,4.74,2.85,2.85,0,0,1-.42.23A135.84,135.84,0,0,0,24.1,3.43ZM45.63.09a4.55,4.55,0,0,0-.47.19c-.18.09-.37.23-.51.18-.6-.18-1,.24-1.48.56A13.34,13.34,0,0,0,41.5,2a8.41,8.41,0,0,0-2.33,3.2,21.82,21.82,0,0,0-1.57,6.87l-.24,4.78a16.51,16.51,0,0,0,0,2c.14,2.23.28,4.51.47,6.73.14,1.63.42,3.16,1.76,4.23.33.28.19.46-.14.79.93,0,1.16.74,1.54,1.3a3.62,3.62,0,0,0,.65.83,2.16,2.16,0,0,0,2.13.84,7,7,0,0,1,1-.05,1,1,0,0,0,1-.42c.18.28.37.47.32.7-.14.46.14.65.42.84a.74.74,0,0,0,1-.05,1.11,1.11,0,0,1,.88-.28,3.32,3.32,0,0,0,2.23-1,5.08,5.08,0,0,0,1-.7,7.21,7.21,0,0,0,1.63-3.48c.32-1.53,1-2.93,1.39-4.41a14.5,14.5,0,0,0,.7-3.44c.14-1.76.14-3.52.18-5.24s0-3.25-.09-4.87A11.24,11.24,0,0,0,53.8,5.94,7.6,7.6,0,0,1,53,4.6a5.92,5.92,0,0,0-3.62-3.39,6.34,6.34,0,0,0-3.25-.14c.09-.37.65-.37.42-.75S46,0,45.63.09Zm.79,2.74A5,5,0,0,1,47.85,3a1.85,1.85,0,0,1,1.4,1.21,18,18,0,0,1,1.11,4.69c.37,2.5-.09,5-.28,7.47-.18,1.85-.28,3.71-.37,5.57A46.19,46.19,0,0,1,49,26.83c-.19,1.16-.52,2.37-.61,3.57A2.07,2.07,0,0,1,46.65,32c-.33,0-.51-.24-.65-.47s-.47-.74-1-.69c-.28,0-.42-.28-.56-.47a2.9,2.9,0,0,1-.42-.65c-.14-.32-.28-.69-.46-1,.6.23.88,1.25,1.76,1.3-.46-.56-.93-1.39-1.25-1.86a4.89,4.89,0,0,1-.7-2.64c-.14-1.72-.28-3.48-.37-5.25a51.84,51.84,0,0,1,0-5.29c.1-1.53,0-3.06.14-4.59a6.47,6.47,0,0,0-.18-1.63,7.79,7.79,0,0,1,.51-3.25,5.29,5.29,0,0,1,1.39-2.13A2.24,2.24,0,0,1,46.42,2.83ZM65.63,1.39a9.94,9.94,0,0,0-3.25.51,1,1,0,0,1-.74.14,3,3,0,0,0-1.91,0c-.51.14-.51.32-.51.69.05.65.1,1.3.1,1.91,0,3,0,6,0,9-.05,2.65.28,5.34.09,8a2.17,2.17,0,0,0,0,.51,9.07,9.07,0,0,1,.19,1.9c.09,2.23.09,4.41.28,6.59a1.81,1.81,0,0,0,.23,1,2.62,2.62,0,0,1,.32,1.16c0,.28.1.61.33.65.65.14,1,.65,1.67.93a23.51,23.51,0,0,0-.05-2.69c-.09-1.53-.37-3.07-.41-4.6-.05-2.78-.33-5.52-.33-8.26,0-3.85.09-7.66.19-11.51,0-.09-.1-.28.23-.37.23,1.16.56,2.32.74,3.48a49.59,49.59,0,0,0,1.53,5.71c.75,2.41,1.58,4.78,2.09,7.24.42,1.81,1.07,3.48,1.49,5.29.28,1.16.65,2.28,1,3.44.14.51.37.88,1,.92s.92.56,1.48.28c.79.47,1.67.19,2.55.33.38,0,.7,0,1,.37a.34.34,0,0,0,.51.18,1.34,1.34,0,0,0,.84-1.34c0-.23,0-.42,0-.65,0-.42-.37-.84.23-1.25.28-.19.14-.79.14-1.26-.09-1.62-.46-3.2-.56-4.83-.09-1.29-.41-2.59-.41-3.85,0-2.09-.1-4.13,0-6.17.09-1.16,0-2.28,0-3.39,0-1.48,0-2.92,0-4.36a42.08,42.08,0,0,0-.33-4.23,2.18,2.18,0,0,0-1.35-1.2c-.13,0-.37,0-.46.14a1.7,1.7,0,0,0-.46,1c.09,2.23,0,4.41,0,6.64A18.41,18.41,0,0,0,73,12.25c.05.89.14,1.77.14,2.7,0,.74-.14,1.48-.14,2.18.1,1.2.14,2.41.14,3.57,0,.19,0,.42.28.51a8.6,8.6,0,0,0,.05-1c0-.32-.14-.65.09-1a23.29,23.29,0,0,1,.23,6.91c-.14,0-.18-.14-.23-.23-.51-1.81-1.07-3.62-1.58-5.43-.32-1.07-.56-2.18-.93-3.25-1-2.78-1.76-5.71-2.78-8.49-.7-1.81-.79-3.72-1.39-5.53-.24-.65-.79-1-.93-1.67C65.91,1.44,65.72,1.39,65.63,1.39Zm7.84,30.27c.56-.05.61.37.79.74C73.43,32.49,73.43,32.49,73.47,31.66ZM96.05.7h-.51a25.52,25.52,0,0,1-3.81,0,32.49,32.49,0,0,0-6,.56c-1.57.23-3.15.6-4.82.7a12,12,0,0,0-2.6.23c-.33.09-.51.23-.47.51s0,.46-.32.56a.72.72,0,0,0-.42.27.86.86,0,0,0,.79.28,25.74,25.74,0,0,0,2.78-.09,12.83,12.83,0,0,1,2.7,0,.67.67,0,0,1,.51.42c0,.32.18.65,0,.93a5.25,5.25,0,0,0-.18,1.71A11.24,11.24,0,0,1,83.7,9a26.19,26.19,0,0,0-.23,5.39c0,1.67,0,3.34,0,5a18.9,18.9,0,0,1,.09,2.28,4.19,4.19,0,0,0,.14,1.53,6.21,6.21,0,0,1,0,2.78,11.93,11.93,0,0,0-.23,3.11c0,1.16.19,2.37.14,3.53,0,.79.88,1.49,1.53,1.11a.8.8,0,0,1,.79,0c.33.18.7.37,1,.55s.37.19.51.1a12,12,0,0,1,1.3-.37.27.27,0,0,0,0-.19,23.6,23.6,0,0,0,.7-2.37c0-1.25.23-2.46.18-3.66,0-.56,0-1.12,0-1.63a28.77,28.77,0,0,0-.14-4c-.09-.79-.18-1.57-.23-2.41-.09-2.09,0-4.13,0-6.22a41.72,41.72,0,0,0-.09-4.18,15.27,15.27,0,0,1-.23-3c0-.24,0-.56-.19-.65-.79-.38-.6-1.12-.88-1.72a3.24,3.24,0,0,1,1.2.28.91.91,0,0,1,.93-.7A7.88,7.88,0,0,1,92,3.39c.79,0,1.63,0,2.42.09a2.18,2.18,0,0,0,1.2-.23c0-.19-.32-.23,0-.42s.55-.74.93-1a.45.45,0,0,0,.18-.65C96.51.88,96.37.7,96.05.7ZM84.81,3.9c.33.28.14,1.07.28,1.44l-.28,0c-.32,0-.32-1.07-.13-1.34C84.72,3.9,84.81,3.85,84.81,3.9ZM102.24,0c-.56.05-1,.14-1.25.74-.1.14-.19.28-.33.28-.7.05-1.21.65-2,.56a.5.5,0,0,0-.56.6c.19,1.95,0,4,.1,5.9,0,2.46.18,4.87.23,7.33s0,4.64.18,7c.19,2.74,0,5.53.19,8.31a3,3,0,0,0,.7,1.49c.14.18.37.27.41.51-.23.79-1.06.37-1.53.74.42.93,1,1.34,1.86,1.21,1.21-.24,2.78-.19,4-.33a34.59,34.59,0,0,1,3.81-.18c1.16.09,2.27-.28,3.39-.19a3.7,3.7,0,0,0,2-.6.23.23,0,0,0,.09-.38c-.19-.27-.09-.41.14-.65s.09-.41-.14-.55a1.22,1.22,0,0,0-.7-.09,1.48,1.48,0,0,1-.79-.1,2.39,2.39,0,0,0-1.39-.23c-.93.09-1.81.14-2.69.28a8.79,8.79,0,0,1-1.9.09.51.51,0,0,1-.42-.14c-.37-.37-.37-.32-.61.1a.19.19,0,0,1-.27.13,1.5,1.5,0,0,1,0-1.48,3.28,3.28,0,0,0,.37-1.49,5.75,5.75,0,0,1,.1-.92,25.86,25.86,0,0,0,.32-4.23,39.55,39.55,0,0,0-.79-4.73,33.91,33.91,0,0,1-.32-6.22c0-2.14-.1-4.23,0-6.36,0-1.21,0-2.41,0-3.62a1.54,1.54,0,0,0-.46-1.63c-.28,1.91.09,3.72-.23,5.43s.46,3.58-.14,5.34c-.33-.23-.28-.55-.33-.88a10,10,0,0,1,0-2.32,43.14,43.14,0,0,1,0-5.57,12.2,12.2,0,0,0,.09-1.81c0-.14,0-.42-.14-.46C102.61.74,102.52.28,102.24,0ZM100.8,32.07c.19,0,.14.14.19.23s-.1.28-.28.24-.14,0-.1-.14S100.61,32.07,100.8,32.07ZM117.94,1.53c-.09,0-.28.05-.37.14s-.51.09-.65.33.14.6,0,.92a.81.81,0,0,0-.32.05c-.75,0-.75,0-.79.7,0,1.9-.19,4.31-.1,6.22.05,1.57-.09,3.25,0,4.87.19,3.11,0,6.22.28,9.38.09,1.3.37,2.55.37,3.89s0,2.46,0,3.72a4.67,4.67,0,0,0,.32,1.62.6.6,0,0,0,.61.47c1.16-.14,1.53,1.3,2.55-.28.18-.28.6-.23,1,0,.56.37.56.37.93-.23.14-.28.28-.51,0-.79-.1-.1-.19-.28,0-.37.37-.24.19-.51.14-.79a1.29,1.29,0,0,1,0-.93,5.62,5.62,0,0,0,.38-2.46,54.79,54.79,0,0,1,.32-5.53,10,10,0,0,0,0-3.94,9.5,9.5,0,0,1-.28-1.72c-.18-1.58-.18-3.15-.32-4.73-.19-2.18-.19-4.69-.28-6.73a5.08,5.08,0,0,0-1.25-3.07C119.71,1.58,118.78,1.67,117.94,1.53Zm3,13.74.23,1.95a12.27,12.27,0,0,1,.19,1.25,4.25,4.25,0,0,1,0,1.3,5.46,5.46,0,0,1-.19.56l-.09-1c0-.23-.32-.84-.32-1V17.22A10,10,0,0,1,121,15.27Zm12.3-13.88A9.94,9.94,0,0,0,130,1.9a1,1,0,0,1-.74.14,3,3,0,0,0-1.91,0c-.51.14-.51.32-.51.69.05.65.09,1.3.09,1.91,0,3,0,6,0,9-.05,2.65.28,5.34.09,8a1.74,1.74,0,0,0,0,.51,9.07,9.07,0,0,1,.19,1.9c.09,2.23.09,4.41.28,6.59a1.81,1.81,0,0,0,.23,1,2.62,2.62,0,0,1,.32,1.16c0,.28.1.61.33.65.65.14,1,.65,1.67.93a26,26,0,0,0,0-2.69c-.09-1.53-.37-3.07-.42-4.6,0-2.78-.32-5.52-.32-8.26,0-3.85.09-7.66.18-11.51,0-.09-.09-.28.24-.37.23,1.16.55,2.32.74,3.48a49.59,49.59,0,0,0,1.53,5.71c.74,2.41,1.58,4.78,2.09,7.24.42,1.81,1.07,3.48,1.49,5.29.27,1.16.65,2.28,1,3.44.14.51.37.88,1,.92s.93.56,1.49.28c.79.47,1.67.19,2.55.33.37,0,.7,0,1,.37a.34.34,0,0,0,.51.18,1.32,1.32,0,0,0,.83-1.34c0-.23,0-.42,0-.65,0-.42-.37-.84.23-1.25.28-.19.14-.79.14-1.26-.09-1.62-.47-3.2-.56-4.83-.09-1.29-.42-2.59-.42-3.85.05-2.09-.09-4.13,0-6.17.1-1.16,0-2.28,0-3.39,0-1.48,0-2.92,0-4.36a39.34,39.34,0,0,0-.32-4.23,2.18,2.18,0,0,0-1.35-1.2c-.14,0-.37,0-.46.14a1.71,1.71,0,0,0-.47,1c.1,2.23.05,4.41,0,6.64a18.41,18.41,0,0,0,.09,2.78c0,.89.14,1.77.14,2.7,0,.74-.14,1.48-.14,2.18.09,1.2.14,2.41.14,3.57,0,.19,0,.42.28.51a8.6,8.6,0,0,0,.05-1c0-.32-.14-.65.09-1a23.29,23.29,0,0,1,.23,6.91c-.14,0-.19-.14-.23-.23-.51-1.81-1.07-3.62-1.58-5.43-.32-1.07-.56-2.18-.93-3.25-1-2.78-1.76-5.71-2.78-8.49-.7-1.81-.79-3.72-1.4-5.53-.23-.65-.78-1-.92-1.67C133.54,1.44,133.35,1.39,133.26,1.39Zm7.84,30.27c.56-.05.61.37.79.74C141.06,32.49,141.06,32.49,141.1,31.66ZM152.43.93C151.6.65,150.81.19,150,1c0,.05-.09.05-.14.05-.6-.09-.65.28-.65.74a4.24,4.24,0,0,1-.09.75,12.93,12.93,0,0,0-2.23.51.76.76,0,0,0,.65.46c.61.09.51.42,1.12.42.37,0,.55.18.55.6,0,1.63.14,3.3.1,5-.1,3.34-.19,6.73-.42,10.07s-.09,6.68-.37,10.12c-.05,1.11,0,2.18,0,3.25a13.12,13.12,0,0,1-2.32.74c-.24.05-.37.14-.37.42a.43.43,0,0,0,.27.46c.28.1.51.33.79.33a31.64,31.64,0,0,0,5.43-.37c.37-.05.7-.19,1.07.09s.6.23.65-.14c.09-.56.42-.56.79-.65a21.14,21.14,0,0,1,4.22-.28,9.25,9.25,0,0,0,1.54-.23,6.22,6.22,0,0,1,2.08-.46c.42,0,.51-.28.28-.61s-.37-.37-.28-.65c.33-.23.84,0,1.12-.42a11.14,11.14,0,0,1-.84-.74.81.81,0,0,0-.65-.18c-.83.18-1.71,0-2.55.27-1.62.47-3.25.7-4.87,1.12a1.1,1.1,0,0,1-.93.05c.56-.7,1.48-.19,2-.65a.32.32,0,0,0-.23-.33,3.8,3.8,0,0,0-1,.05c-.42,0-.6-.1-.7-.56a9.63,9.63,0,0,1,.24-3.43,4.47,4.47,0,0,0,.14-1.3,30.46,30.46,0,0,1,.14-3.72c0-1.16,0-2.27,0-3.39,0-.6,0-.6.55-.65a11.19,11.19,0,0,0,3.34-.46,4.49,4.49,0,0,1,1.35-.32,1.94,1.94,0,0,0,1-.56c-.6-.42-1-1.07-1.76-.93-1.49.23-3-.19-4.5.05a42,42,0,0,1,0-6c0-.51,0-1,0-1.44a10.31,10.31,0,0,1-.14-4c.09-.28.23-.46.51-.46,1,0,2-.33,2.92-.37s2.09,0,3.16,0a12.78,12.78,0,0,0,3.2-.51,2.75,2.75,0,0,0-2.41-1.62c-.51,0-1,.14-1.54.18-2,.33-3.94.28-5.89.61a.47.47,0,0,1-.33,0A2.7,2.7,0,0,0,152.43.93Zm-3,29.84c.28.33.19,1.12.23,1.44.1.51.1.51-.65.61C149.14,32.26,149,31.24,149.46,30.77Z"/><path d="M3.93,38.52a.22.22,0,0,0,.16,0c.94-.15,1.9-.13,2.84-.29.25,0,.49-.09.74-.09a1.33,1.33,0,0,1,1.16.78,6,6,0,0,1-1.54.25c-.52,0-1-.05-1.52,0s-.94.15-1.41.18c-.14,0-.2.09-.25.22a5.18,5.18,0,0,0,.07,1.92c0,.23,0,.45,0,.69a21.74,21.74,0,0,0,0,2.91c.74-.11,1.45.09,2.17,0,.36-.07.56.24.85.44a.9.9,0,0,1-.49.27,2.47,2.47,0,0,0-.65.16,5.4,5.4,0,0,1-1.61.22c-.29,0-.29,0-.27.32,0,.53,0,1.07,0,1.63a17.51,17.51,0,0,0-.07,1.79,1.87,1.87,0,0,1-.06.62,4.63,4.63,0,0,0-.12,1.66c0,.22.14.29.34.26a2,2,0,0,1,.49,0,.15.15,0,0,1,.11.16c-.24.22-.69,0-1,.31a.54.54,0,0,0,.45,0c.78-.2,1.56-.31,2.35-.54.4-.11.82,0,1.22-.13a.41.41,0,0,1,.32.09c.13.13.27.24.4.35-.13.18-.38.09-.54.21s.09.2.14.31.06.29-.14.29a3.15,3.15,0,0,0-1,.22,3.8,3.8,0,0,1-.74.12,10.55,10.55,0,0,0-2,.13c-.18,0-.34,0-.38.31s-.16.2-.32.07-.33-.07-.51-.05a13.42,13.42,0,0,1-2.62.18c-.13,0-.24-.11-.37-.15A.22.22,0,0,1,0,54c0-.13.07-.18.18-.2a5.77,5.77,0,0,0,1.12-.36c0-.51,0-1,0-1.56.13-1.65,0-3.22.18-4.87s.15-3.24.2-4.85c0-.81-.05-1.61-.05-2.39,0-.21-.09-.3-.27-.3s-.24-.15-.53-.2a.35.35,0,0,1-.32-.22,6.44,6.44,0,0,1,1.08-.25,2.35,2.35,0,0,0,0-.35c0-.23,0-.41.31-.36,0,0,.07,0,.07,0,.41-.38.78-.16,1.19,0S3.76,38.25,3.93,38.52ZM1.57,53.43c.35,0,.35,0,.31-.29s0-.54-.11-.69C1.52,52.67,1.61,53.16,1.57,53.43Z"/><path d="M12.29,38c.09,0,.07.16.07.22a5.08,5.08,0,0,1,0,.87,22,22,0,0,0,0,2.69,4.55,4.55,0,0,0,0,1.11c0,.16,0,.32.16.43.29-.85-.07-1.7.07-2.57s0-1.7.11-2.62a.76.76,0,0,1,.22.79c0,.58,0,1.16,0,1.74,0,1,0,2,0,3.06a16.67,16.67,0,0,0,.15,3A19,19,0,0,1,13.47,49a12.44,12.44,0,0,1-.15,2,3.44,3.44,0,0,0-.05.45,1.5,1.5,0,0,1-.18.71.76.76,0,0,0,0,.72.1.1,0,0,0,.14-.07c.11-.2.11-.22.29,0a.25.25,0,0,0,.2.06,4,4,0,0,0,.91,0c.43-.07.85-.09,1.3-.14a1.12,1.12,0,0,1,.67.12.8.8,0,0,0,.38,0,.59.59,0,0,1,.34.05c.11.06.22.15.06.26s-.15.18-.06.32a.11.11,0,0,1-.05.18,1.8,1.8,0,0,1-.94.29c-.53,0-1.07.13-1.63.09a16,16,0,0,0-1.83.08c-.58.07-1.34,0-1.92.16-.41.07-.7-.13-.9-.58.22-.18.63,0,.74-.36,0-.11-.13-.15-.2-.24a1.42,1.42,0,0,1-.34-.72c-.06-1.34,0-2.68-.09-4-.06-1.12,0-2.23-.09-3.35S10,42.7,9.94,41.52c0-.94.05-1.9,0-2.84,0-.23.11-.29.27-.29.35,0,.6-.25.93-.27.07,0,.12-.07.16-.13.11-.3.34-.34.6-.36S12,38,12.29,38Zm-1.21,15.2s0,.06.05.06.11,0,.13-.11,0-.11-.09-.11S11.1,53.16,11.08,53.23Z"/><path d="M21.63,38.52a.19.19,0,0,0,.15,0c.94-.15,1.9-.13,2.84-.29.25,0,.49-.09.74-.09a1.32,1.32,0,0,1,1.16.78,5.9,5.9,0,0,1-1.54.25c-.51,0-1-.05-1.52,0s-.94.15-1.41.18c-.13,0-.2.09-.24.22a5,5,0,0,0,.06,1.92,5.3,5.3,0,0,1,0,.69,21.74,21.74,0,0,0,0,2.91c.74-.11,1.46.09,2.17,0,.36-.07.56.24.85.44a.87.87,0,0,1-.49.27,2.47,2.47,0,0,0-.65.16,5.35,5.35,0,0,1-1.61.22c-.29,0-.29,0-.27.32a14.77,14.77,0,0,1,0,1.63,15.08,15.08,0,0,0-.06,1.79,2.19,2.19,0,0,1-.07.62,4.63,4.63,0,0,0-.11,1.66c0,.22.13.29.33.26a2,2,0,0,1,.49,0,.16.16,0,0,1,.12.16c-.25.22-.7,0-1,.31a.51.51,0,0,0,.44,0c.78-.2,1.57-.31,2.35-.54.4-.11.83,0,1.23-.13a.39.39,0,0,1,.31.09l.4.35c-.13.18-.38.09-.53.21s.09.2.13.31.07.29-.13.29a3.21,3.21,0,0,0-1,.22,3.8,3.8,0,0,1-.74.12,10.55,10.55,0,0,0-2,.13c-.18,0-.34,0-.38.31s-.16.2-.31.07-.34-.07-.52-.05a13.38,13.38,0,0,1-2.61.18c-.14,0-.25-.11-.38-.15a.23.23,0,0,1-.14-.23c0-.13.07-.18.18-.2A5.57,5.57,0,0,0,19,53.47c0-.51,0-1,0-1.56.13-1.65,0-3.22.18-4.87s.16-3.24.2-4.85c0-.81,0-1.61,0-2.39,0-.21-.09-.3-.27-.3s-.25-.15-.54-.2a.35.35,0,0,1-.31-.22,6.33,6.33,0,0,1,1.07-.25,2.45,2.45,0,0,0,0-.35c0-.23,0-.41.31-.36,0,0,.07,0,.07,0,.4-.38.78-.16,1.18,0A1.38,1.38,0,0,1,21.63,38.52ZM19.26,53.43c.36,0,.36,0,.31-.29s0-.54-.11-.69C19.21,52.67,19.3,53.16,19.26,53.43Z"/><path d="M34.83,38.45a1.5,1.5,0,0,1,.7,1.23c0,.92.13,4-.43,3.22-.31-.4-.11.25-.27.4s-.09.27-.18.39a3.39,3.39,0,0,1-.69-2,14.78,14.78,0,0,1-.22-1.74,1.32,1.32,0,0,0-1.88-1,3.26,3.26,0,0,0,.34,0s0,.09,0,.11a1.69,1.69,0,0,0-.67,1,7.85,7.85,0,0,0-.47,1.47c-.09.69-.38,1.34-.5,2a10.22,10.22,0,0,0-.22,1.23c-.11.9,0,2.37,0,3a1.1,1.1,0,0,0-.05.4,3.2,3.2,0,0,1,0,1.07c0,.27.27.52.29.76a4.51,4.51,0,0,0,.52,1.86,1,1,0,0,0,1.07.58l.92-.07a.73.73,0,0,0,.4-.18,6.11,6.11,0,0,0,1.3-.89,3.65,3.65,0,0,0,.6-.43c.27-.27.54-.44.8-.73a1.42,1.42,0,0,1,.56-.32c.11.18-.27.52-.09.65a.75.75,0,0,1,0,.11c-.16.23-.42.29-.54.47a2.54,2.54,0,0,1-.33.58,4.29,4.29,0,0,1-.45.38c-.06.07-.13.18-.22.3a3.46,3.46,0,0,1-1.07.95,9.43,9.43,0,0,0-1.17.72,5.47,5.47,0,0,1-1.25.51c-.4.14-.56-.06-.91.09-.07,0-.16,0-.23-.06s-.22-.09-.31,0a.15.15,0,0,1-.11.06c-.43-.15-.72-.22-1.12-.38a2.88,2.88,0,0,1-1-1.18,6,6,0,0,1-.63-2,4.15,4.15,0,0,0-.15-1.48c-.09-.22,0-.49-.12-.73a.72.72,0,0,1,0-.61,2.62,2.62,0,0,0,.07-.74,22.63,22.63,0,0,1,.18-3.08c.09-.51,0-1,.13-1.52A10.89,10.89,0,0,1,29,39a.22.22,0,0,1,.09-.07s.07,0,.09,0,.27.14.36,0a2.74,2.74,0,0,1,.78-.81c.07,0,.11-.13.22-.08A3.11,3.11,0,0,0,32,37.9,4,4,0,0,1,34.83,38.45Zm-7,5.75a3.53,3.53,0,0,0-.05.85c-.09.18.34.6.25.18s.34-2.48,0-2.48C28.08,42.75,27.86,44.15,27.86,44.2Z"/><path d="M45.76,38.19a.21.21,0,0,1-.09.31c-.18.13-.27.36-.45.49s0,.11,0,.2a1,1,0,0,1-.58.11c-.38,0-.78,0-1.16,0a4.23,4.23,0,0,0-.87,0,.46.46,0,0,0-.45.34,1.65,1.65,0,0,0-.58-.14c.13.3,0,.65.42.83.09.05.09.2.09.32a7.88,7.88,0,0,0,.12,1.45c.06.67,0,1.34,0,2,0,1,0,2,0,3,0,.41.07.79.11,1.17a13.93,13.93,0,0,1,.07,1.94,6.71,6.71,0,0,0,0,.78c0,.58-.09,1.17-.09,1.77,0,.4-.27.74-.34,1.14,0,0,0,.07,0,.09-.2.09-.43.07-.63.18s-.15,0-.24-.05l-.47-.27a.4.4,0,0,0-.38,0c-.31.18-.76-.16-.74-.54,0-.56,0-1.14-.07-1.7a5.37,5.37,0,0,1,.12-1.5,3,3,0,0,0,0-1.34,2,2,0,0,1-.06-.73,9.9,9.9,0,0,0,0-1.1c0-.8,0-1.61,0-2.41a12.53,12.53,0,0,1,.11-2.6,5.22,5.22,0,0,0,0-1.05,2.87,2.87,0,0,1,.09-.82c.07-.14,0-.29,0-.45a.3.3,0,0,0-.25-.2,6.18,6.18,0,0,0-1.29,0c-.45.06-.9,0-1.34,0a.43.43,0,0,1-.38-.13.37.37,0,0,1,.2-.14c.13,0,.2-.09.15-.26s.07-.2.23-.25a5.87,5.87,0,0,1,1.25-.11c.8-.05,1.56-.22,2.32-.34A15.53,15.53,0,0,1,43.39,38a12.43,12.43,0,0,0,1.83,0h.25C45.62,38,45.69,38.05,45.76,38.19ZM40,39.53c-.09.13-.09.62.07.65l.13,0c-.07-.18,0-.56-.13-.7S40,39.5,40,39.53Z"/><path d="M49,38.72a2.48,2.48,0,0,1,.61,1.48c0,1,0,2.19.13,3.24.07.76.07,1.52.16,2.28a4.49,4.49,0,0,0,.13.83,4.86,4.86,0,0,1,0,1.9c-.13.89-.11,1.78-.16,2.66a2.52,2.52,0,0,1-.18,1.18.63.63,0,0,0,0,.45c0,.13.11.27-.07.38s0,.13,0,.17.05.25,0,.39-.18.29-.45.11-.38-.14-.47,0c-.49.76-.67.06-1.23.13a.29.29,0,0,1-.29-.22,2.3,2.3,0,0,1-.15-.78c0-.61,0-1.21,0-1.79s-.13-1.25-.18-1.88c-.13-1.52,0-3-.13-4.51,0-.79,0-1.59,0-2.35,0-.92,0-2.08,0-3,0-.33,0-.33.38-.33a.5.5,0,0,1,.16,0c.07-.16-.05-.29,0-.45s.22-.05.31-.16.14-.09.18-.06C48.23,38.43,48.68,38.39,49,38.72Zm.18,7.2v.51a4,4,0,0,0,.16.49l0,.5c0-.09,0,0,.09-.27a2,2,0,0,0,0-.63,4.86,4.86,0,0,0-.09-.6L49.28,45A5.17,5.17,0,0,0,49.17,45.92Z"/><path d="M56.54,37.78c.11.18-.15.18-.2.36a3.07,3.07,0,0,1,1.57.07,2.84,2.84,0,0,1,1.74,1.63,4.24,4.24,0,0,0,.38.65A5.32,5.32,0,0,1,60.81,43c0,.79.07,1.57,0,2.35s0,1.68-.09,2.53a6.73,6.73,0,0,1-.34,1.65c-.2.72-.51,1.39-.67,2.12A3.42,3.42,0,0,1,59,53.34a2.25,2.25,0,0,1-.47.34,1.61,1.61,0,0,1-1.07.46.56.56,0,0,0-.43.14c-.18.18-.33.11-.49,0s-.27-.18-.2-.4-.07-.2-.16-.34a.49.49,0,0,1-.46.21,4.18,4.18,0,0,0-.5,0,1.06,1.06,0,0,1-1-.4,2.2,2.2,0,0,1-.31-.41c-.18-.27-.29-.6-.74-.62.16-.16.23-.25.07-.38a2.67,2.67,0,0,1-.85-2c-.09-1.07-.15-2.17-.22-3.24a7.69,7.69,0,0,1,0-1l.11-2.3A10.43,10.43,0,0,1,53,40.13a4.09,4.09,0,0,1,1.12-1.54,5.61,5.61,0,0,1,.8-.47c.23-.16.43-.36.72-.27.07,0,.15,0,.24-.09s.14-.07.23-.09S56.45,37.63,56.54,37.78Zm-.84,1.48a2.58,2.58,0,0,0-.68,1,3.76,3.76,0,0,0-.24,1.56,3.53,3.53,0,0,1,.09.78c0,.74,0,1.48-.07,2.22a24.1,24.1,0,0,0,0,2.55c0,.84.11,1.69.18,2.52a2.35,2.35,0,0,0,.34,1.27,10.8,10.8,0,0,0,.6.9c-.42,0-.56-.52-.85-.63a4.13,4.13,0,0,1,.22.49,1.48,1.48,0,0,0,.21.32c.06.09.13.24.26.22s.38.16.5.34.15.24.31.22a1,1,0,0,0,.85-.78c0-.58.2-1.16.29-1.72a21.76,21.76,0,0,0,.33-2.37c0-.9.09-1.79.18-2.69a16,16,0,0,0,.14-3.59,9.2,9.2,0,0,0-.54-2.26.88.88,0,0,0-.67-.58,2.32,2.32,0,0,0-.69-.07A1.08,1.08,0,0,0,55.7,39.26Z"/><path d="M66.08,38.37c.07.31.34.49.45.8.29.87.33,1.79.67,2.66.49,1.34.85,2.75,1.34,4.09.18.51.29,1,.45,1.56.24.88.51,1.75.76,2.62,0,0,0,.11.11.11a11.31,11.31,0,0,0-.11-3.33c-.11.16,0,.31,0,.47a2.64,2.64,0,0,1,0,.49c-.16,0-.13-.15-.13-.24,0-.56,0-1.14-.07-1.73,0-.33.07-.69.07-1s0-.87-.07-1.29a8.63,8.63,0,0,1,0-1.34c0-1.08.07-2.13,0-3.2a.86.86,0,0,1,.22-.47c0-.07.16-.07.22-.07s.63.38.65.59c0,.67.2,1.34.16,2s0,1.39,0,2.1c0,.54.06,1.07,0,1.63,0,1,0,2,0,3,0,.61.15,1.23.2,1.86s.22,1.54.27,2.32c0,.23.06.52-.07.61-.29.2-.11.4-.11.6s0,.2,0,.31a.65.65,0,0,1-.4.65c-.11.07-.2,0-.25-.09s-.29-.15-.47-.18c-.42-.06-.85.07-1.22-.15-.27.13-.48-.11-.72-.14s-.4-.2-.47-.44c-.16-.56-.34-1.1-.47-1.66-.2-.87-.51-1.67-.71-2.55-.25-1.18-.65-2.32-1-3.48a24.28,24.28,0,0,1-.74-2.75c-.09-.56-.24-1.12-.36-1.68-.15,0-.11.14-.11.18,0,1.86-.09,3.69-.09,5.54,0,1.32.14,2.64.16,4,0,.74.16,1.48.2,2.22a10.85,10.85,0,0,1,0,1.29c-.31-.13-.49-.38-.8-.44a.29.29,0,0,1-.16-.32,1.23,1.23,0,0,0-.15-.56.87.87,0,0,1-.12-.49c-.09-1-.09-2.1-.13-3.17a4.22,4.22,0,0,0-.09-.92,1,1,0,0,1,0-.24c.09-1.28-.07-2.58,0-3.85,0-1.45,0-2.88,0-4.34,0-.29,0-.6,0-.91s0-.27.25-.34a1.52,1.52,0,0,1,.92,0,.44.44,0,0,0,.35-.07A5,5,0,0,1,66,38.3S66.08,38.32,66.08,38.37Zm4,14.86c-.09-.18-.12-.38-.38-.36C69.7,53.27,69.7,53.27,70.11,53.23Z"/><path d="M81.11,38c.88.13,1.75.31,2.6.46.24,0,.51,0,.76.12a2.92,2.92,0,0,1,2,1.72,5.38,5.38,0,0,1,.27.89c0,.11,0,.2.2.2s.16.14.2.25a6.33,6.33,0,0,1,.27,2.73,6.11,6.11,0,0,0-.09,1.43.79.79,0,0,1,0,.2A12.63,12.63,0,0,1,86,49.45a.43.43,0,0,0-.13.25c-.1.71-.74,1-1.08,1.54a.17.17,0,0,1-.2.07c-.16-.05,0-.2-.11-.29a6.73,6.73,0,0,1-.51.73,12.85,12.85,0,0,1-1,1.17,7.55,7.55,0,0,1-1.17.87c-.35.22-.38.31-.35.71a3.55,3.55,0,0,0-1.16.09.57.57,0,0,1-.79-.2c-.13,0-.15.16-.22.22s-.29.32-.58.23a.53.53,0,0,1-.43-.58c0-.72,0-1.41,0-2.13a11.79,11.79,0,0,0,0-2.3,29.55,29.55,0,0,1-.15-3.13c0-.65,0-1.29,0-1.92a21.72,21.72,0,0,1,.09-2.91c.07-.46-.06-.94,0-1.4a.77.77,0,0,1,.14-.5c.15-.15.08-.42.08-.64a2.44,2.44,0,0,0,0-.47,4,4,0,0,1-.49,0c-.24,0-.24,0-.11-.32s.56-.4.92-.38a1.42,1.42,0,0,0,.65,0s0-.07,0-.11c-.09-.34-.07-.36.27-.27S80.62,37.9,81.11,38Zm-.73,1.29c.24.43.11.92.29,1.34,0,1.19,0,2.35.09,3.53,0,.94,0,1.9.11,2.84a14.17,14.17,0,0,0,.24,2.33.06.06,0,0,1,0,.06,13.88,13.88,0,0,0,.11,1.93,1.08,1.08,0,0,0,.09.51,14,14,0,0,0,1-1.41c-.18,0-.27.14-.45.09,0-.09.09-.13.14-.18a3.33,3.33,0,0,0,.73-.67,22.27,22.27,0,0,0,2-4.22,2.35,2.35,0,0,0,.14-.69c0-.56.06-1.1.06-1.64a2.16,2.16,0,0,0,0-.8,6.62,6.62,0,0,0-1.23-2.44.85.85,0,0,0-.22-.2,2.41,2.41,0,0,0-1.59-.6.18.18,0,0,1-.11-.05,10.56,10.56,0,0,0-1.12-.09C80.33,39,80.24,39.06,80.38,39.28Zm4.06.78.12.16c.06-.22,0-.31-.16-.31S84.4,40,84.44,40.06Zm2.73,3.53A3.61,3.61,0,0,0,87,42,7.78,7.78,0,0,0,87.17,43.59Z"/><path d="M92.11,38.52a.19.19,0,0,0,.15,0c.94-.15,1.9-.13,2.84-.29.25,0,.49-.09.74-.09a1.33,1.33,0,0,1,1.16.78,5.9,5.9,0,0,1-1.54.25c-.52,0-1-.05-1.52,0s-.94.15-1.41.18c-.13,0-.2.09-.25.22a5.18,5.18,0,0,0,.07,1.92c0,.23,0,.45,0,.69a21.74,21.74,0,0,0,0,2.91c.74-.11,1.45.09,2.17,0,.36-.07.56.24.85.44a.87.87,0,0,1-.49.27,2.47,2.47,0,0,0-.65.16,5.4,5.4,0,0,1-1.61.22c-.29,0-.29,0-.27.32,0,.53,0,1.07,0,1.63a17.51,17.51,0,0,0-.07,1.79,1.87,1.87,0,0,1-.06.62,4.41,4.41,0,0,0-.11,1.66c0,.22.13.29.33.26a2,2,0,0,1,.49,0,.15.15,0,0,1,.11.16c-.24.22-.69,0-1,.31a.53.53,0,0,0,.45,0c.78-.2,1.57-.31,2.35-.54.4-.11.82,0,1.23-.13a.39.39,0,0,1,.31.09c.13.13.27.24.4.35-.13.18-.38.09-.54.21s.09.2.14.31.07.29-.14.29a3.15,3.15,0,0,0-1,.22,3.8,3.8,0,0,1-.74.12,10.55,10.55,0,0,0-2,.13c-.18,0-.34,0-.38.31s-.16.2-.31.07-.34-.07-.52-.05a13.38,13.38,0,0,1-2.61.18c-.14,0-.25-.11-.38-.15a.22.22,0,0,1-.14-.23c0-.13.07-.18.18-.2a5.57,5.57,0,0,0,1.12-.36c0-.51,0-1,0-1.56.13-1.65,0-3.22.18-4.87s.15-3.24.2-4.85c0-.81,0-1.61,0-2.39,0-.21-.09-.3-.26-.3s-.25-.15-.54-.2a.33.33,0,0,1-.31-.22,6.33,6.33,0,0,1,1.07-.25,2.35,2.35,0,0,0,0-.35c0-.23,0-.41.32-.36,0,0,.06,0,.06,0,.41-.38.79-.16,1.19,0A1.38,1.38,0,0,1,92.11,38.52ZM89.74,53.43c.35,0,.35,0,.31-.29s0-.54-.11-.69C89.69,52.67,89.78,53.16,89.74,53.43Z"/><path d="M100.35,38.48a6.74,6.74,0,0,0,1.12-.07c.64-.07,1.32,0,2-.14s1.5,0,2.24-.13a.23.23,0,0,1,.22,0c.09.08,0,.18-.13.22a1.12,1.12,0,0,0-.49.69.77.77,0,0,1-.54.32,9.57,9.57,0,0,1-1.52.06c-.56,0-1,.05-1.5.07a4.72,4.72,0,0,0-1,.16,8.92,8.92,0,0,1,.09,1.16c.09,1.05,0,2.21.16,3.24,0,.25.11.31.42.27.56-.07,1,0,1.52-.05s.85-.09,1,.11a2.49,2.49,0,0,1-.74.41c-.27.11-.51.18-.35.24s.24.23-.05.32a2.53,2.53,0,0,1-.81.11,6.66,6.66,0,0,0-.69.13c-.09,0-.24,0-.24.07a21.17,21.17,0,0,0,.2,3c.06.45,0,.89,0,1.37a11.93,11.93,0,0,0,.18,1.8,1.13,1.13,0,0,1,0,.63,3.44,3.44,0,0,0,0,.63,9.86,9.86,0,0,1-.09,1.07c0,.29-.25.18-.41.27s-.24.15-.35-.11c.09-.14,0-1.37-.16-1.37s0,.67-.11,1-.94.14-1.21,0-.38-.2-.38-.83,0-1.36,0-2.06,0-1.5-.07-2.25.12-2,.07-2.89c0-.38-.4-.29-.49-.38s-.07-.4-.22-.51,0-.23.15-.31a3.13,3.13,0,0,0,.49-.16c0-1,0-1.86,0-2.88s-.15-2-.18-3.09c0-.2,0-.34.23-.4s.29-.11.35.11.09.09.25.16c-.07-.47.2-.41.47-.54C99.86,38.12,100.3,38.23,100.35,38.48Zm3,6.48c-.11,0-.29.11-.25.24s.23,0,.34,0,.11-.06.2-.22A.74.74,0,0,0,103.39,45Z"/><path d="M109.62,38.52a.22.22,0,0,0,.16,0c.93-.15,1.9-.13,2.83-.29.25,0,.5-.09.74-.09a1.32,1.32,0,0,1,1.16.78,5.83,5.83,0,0,1-1.54.25c-.51,0-1-.05-1.52,0s-.94.15-1.41.18c-.13,0-.2.09-.24.22a5.17,5.17,0,0,0,.06,1.92,5.3,5.3,0,0,1,0,.69,23.54,23.54,0,0,0,0,2.91c.74-.11,1.46.09,2.17,0,.36-.07.56.24.85.44a.87.87,0,0,1-.49.27,2.68,2.68,0,0,0-.65.16,5.35,5.35,0,0,1-1.61.22c-.29,0-.29,0-.27.32a14.77,14.77,0,0,1,0,1.63,15.08,15.08,0,0,0-.06,1.79,1.88,1.88,0,0,1-.07.62,4.63,4.63,0,0,0-.11,1.66c0,.22.13.29.33.26a2.05,2.05,0,0,1,.5,0,.16.16,0,0,1,.11.16c-.25.22-.7,0-1,.31a.51.51,0,0,0,.44,0c.79-.2,1.57-.31,2.35-.54.4-.11.83,0,1.23-.13a.39.39,0,0,1,.31.09c.14.13.27.24.41.35-.14.18-.38.09-.54.21s.09.2.13.31.07.29-.13.29a3.21,3.21,0,0,0-1,.22,3.71,3.71,0,0,1-.73.12,10.6,10.6,0,0,0-2,.13c-.18,0-.33,0-.38.31s-.16.2-.31.07-.34-.07-.52-.05a13.38,13.38,0,0,1-2.61.18c-.13,0-.25-.11-.38-.15a.22.22,0,0,1-.13-.23.18.18,0,0,1,.17-.2,5.57,5.57,0,0,0,1.12-.36c0-.51,0-1,0-1.56.14-1.65,0-3.22.18-4.87s.16-3.24.2-4.85c0-.81,0-1.61,0-2.39,0-.21-.09-.3-.27-.3s-.25-.15-.54-.2a.35.35,0,0,1-.31-.22,6.33,6.33,0,0,1,1.07-.25,2.45,2.45,0,0,0,0-.35c0-.23,0-.41.31-.36,0,0,.07,0,.07,0,.4-.38.78-.16,1.18,0A1.38,1.38,0,0,1,109.62,38.52Zm-2.37,14.91c.36,0,.36,0,.31-.29s0-.54-.11-.69C107.2,52.67,107.29,53.16,107.25,53.43Z"/><path d="M119.07,38.37c.07.31.33.49.45.8.29.87.33,1.79.67,2.66.49,1.34.85,2.75,1.34,4.09.18.51.29,1,.44,1.56.25.88.52,1.75.76,2.62,0,0,0,.11.12.11a11,11,0,0,0-.12-3.33c-.11.16,0,.31,0,.47a3.93,3.93,0,0,1,0,.49c-.16,0-.14-.15-.14-.24,0-.56,0-1.14-.06-1.73,0-.33.06-.69.06-1s0-.87-.06-1.29a8.63,8.63,0,0,1,0-1.34c0-1.08.07-2.13,0-3.2a.87.87,0,0,1,.23-.47c0-.07.15-.07.22-.07s.63.38.65.59c0,.67.2,1.34.16,2s0,1.39,0,2.1c0,.54.07,1.07,0,1.63,0,1,0,2,0,3,0,.61.15,1.23.2,1.86s.22,1.54.26,2.32c0,.23.07.52-.06.61-.29.2-.11.4-.11.6s0,.2,0,.31a.65.65,0,0,1-.4.65.17.17,0,0,1-.25-.09c-.13-.18-.29-.15-.47-.18-.42-.06-.85.07-1.23-.15-.27.13-.47-.11-.71-.14a.49.49,0,0,1-.47-.44c-.16-.56-.34-1.1-.47-1.66-.2-.87-.52-1.67-.72-2.55-.24-1.18-.65-2.32-1-3.48a24.28,24.28,0,0,1-.74-2.75c-.09-.56-.25-1.12-.36-1.68-.16,0-.11.14-.11.18,0,1.86-.09,3.69-.09,5.54,0,1.32.13,2.64.16,4,0,.74.15,1.48.2,2.22,0,.4,0,.82,0,1.29-.31-.13-.49-.38-.8-.44a.28.28,0,0,1-.16-.32,1.25,1.25,0,0,0-.16-.56.87.87,0,0,1-.11-.49c-.09-1-.09-2.1-.13-3.17a4.94,4.94,0,0,0-.09-.92,1,1,0,0,1,0-.24c.09-1.28-.07-2.58,0-3.85,0-1.45,0-2.88,0-4.34,0-.29,0-.6-.05-.91s0-.27.25-.34a1.49,1.49,0,0,1,.91,0,.46.46,0,0,0,.36-.07,5,5,0,0,1,1.57-.24S119.07,38.32,119.07,38.37Zm4,14.86c-.09-.18-.11-.38-.38-.36C122.69,53.27,122.69,53.27,123.09,53.23Z"/><path d="M129.41,38c.87.13,1.74.31,2.59.46.25,0,.52,0,.76.12a2.94,2.94,0,0,1,2.06,1.72,6.55,6.55,0,0,1,.27.89c0,.11,0,.2.2.2s.15.14.2.25a6.33,6.33,0,0,1,.27,2.73,5.62,5.62,0,0,0-.09,1.43.53.53,0,0,1,0,.2,12.93,12.93,0,0,1-1.31,3.46c-.07.09-.14.16-.14.25-.09.71-.74,1-1.07,1.54a.17.17,0,0,1-.2.07c-.16-.05,0-.2-.11-.29a6.78,6.78,0,0,1-.52.73,11.49,11.49,0,0,1-1,1.17,7.47,7.47,0,0,1-1.16.87c-.36.22-.38.31-.36.71a3.55,3.55,0,0,0-1.16.09.56.56,0,0,1-.78-.2c-.13,0-.16.16-.22.22s-.29.32-.59.23a.53.53,0,0,1-.42-.58c0-.72,0-1.41,0-2.13a11.05,11.05,0,0,0,0-2.3,29.55,29.55,0,0,1-.16-3.13c0-.65,0-1.29,0-1.92a21.72,21.72,0,0,1,.09-2.91c.07-.46-.07-.94,0-1.4a.82.82,0,0,1,.13-.5c.16-.15.09-.42.09-.64a3.65,3.65,0,0,0,0-.47,4,4,0,0,1-.49,0c-.25,0-.25,0-.11-.32s.56-.4.91-.38a1.42,1.42,0,0,0,.65,0s0-.07,0-.11c-.09-.34-.07-.36.27-.27C128.43,37.87,128.92,37.9,129.41,38Zm-.74,1.29c.25.43.11.92.29,1.34,0,1.19,0,2.35.09,3.53,0,.94,0,1.9.12,2.84a13.16,13.16,0,0,0,.24,2.33.07.07,0,0,1,0,.06,13.89,13.89,0,0,0,.12,1.93,1.2,1.2,0,0,0,.08.51,16.08,16.08,0,0,0,1-1.41c-.18,0-.27.14-.45.09,0-.09.09-.13.13-.18a3.38,3.38,0,0,0,.74-.67,22.27,22.27,0,0,0,2-4.22,2.34,2.34,0,0,0,.13-.69c0-.56.07-1.1.07-1.64a2.4,2.4,0,0,0,0-.8A6.77,6.77,0,0,0,132,39.86a.9.9,0,0,0-.23-.2,2.39,2.39,0,0,0-1.58-.6A.16.16,0,0,1,130,39a10.56,10.56,0,0,0-1.12-.09C128.63,39,128.54,39.06,128.67,39.28Zm4.07.78s.07.09.11.16c.07-.22,0-.31-.15-.31S132.7,40,132.74,40.06Zm2.73,3.53a3.61,3.61,0,0,0-.2-1.6A7.15,7.15,0,0,0,135.47,43.59Z"/><path d="M140.4,38.52a.22.22,0,0,0,.16,0c.94-.15,1.9-.13,2.84-.29.24,0,.49-.09.74-.09a1.34,1.34,0,0,1,1.16.78,6,6,0,0,1-1.54.25c-.52,0-1-.05-1.53,0s-.93.15-1.4.18c-.14,0-.2.09-.25.22a5.18,5.18,0,0,0,.07,1.92c0,.23,0,.45,0,.69a20.19,20.19,0,0,0,0,2.91c.73-.11,1.45.09,2.17,0,.35-.07.55.24.84.44a.84.84,0,0,1-.49.27,2.5,2.5,0,0,0-.64.16,5.4,5.4,0,0,1-1.61.22c-.29,0-.29,0-.27.32,0,.53,0,1.07,0,1.63a17.51,17.51,0,0,0-.07,1.79,1.88,1.88,0,0,1-.07.62,4.63,4.63,0,0,0-.11,1.66c0,.22.14.29.34.26a2,2,0,0,1,.49,0,.16.16,0,0,1,.11.16c-.24.22-.69,0-1,.31a.54.54,0,0,0,.45,0c.78-.2,1.56-.31,2.34-.54.41-.11.83,0,1.23-.13a.42.42,0,0,1,.32.09,4.36,4.36,0,0,0,.4.35c-.14.18-.38.09-.54.21s.09.2.14.31.06.29-.14.29a3.09,3.09,0,0,0-1,.22,3.93,3.93,0,0,1-.74.12,10.71,10.71,0,0,0-2,.13c-.17,0-.33,0-.37.31s-.16.2-.32.07-.33-.07-.51-.05a13.42,13.42,0,0,1-2.62.18c-.13,0-.24-.11-.38-.15a.22.22,0,0,1-.13-.23c0-.13.07-.18.18-.2a6,6,0,0,0,1.12-.36c0-.51,0-1,0-1.56.13-1.65,0-3.22.17-4.87s.16-3.24.2-4.85c0-.81,0-1.61,0-2.39,0-.21-.09-.3-.27-.3s-.24-.15-.54-.2a.35.35,0,0,1-.31-.22,6.57,6.57,0,0,1,1.07-.25,1.55,1.55,0,0,0,0-.35c0-.23,0-.41.31-.36,0,0,.07,0,.07,0,.4-.38.78-.16,1.18,0A1.38,1.38,0,0,1,140.4,38.52ZM138,53.43c.36,0,.36,0,.32-.29s0-.54-.12-.69C138,52.67,138.08,53.16,138,53.43Z"/><path d="M150.39,38.41a3.53,3.53,0,0,1,1.87.42,3.77,3.77,0,0,0,1,.54,1.12,1.12,0,0,1,.61.67,4.71,4.71,0,0,1,.47,2.1c0,.25.11.45.11.7a3,3,0,0,1-1.1,2.3,7.94,7.94,0,0,1-1.07.71.94.94,0,0,1-.38.23c0-.21.25-.25.25-.45a1.5,1.5,0,0,0-.67.45c-.09.09,0,.22.11.29.31.26.6.58.89.87a4.07,4.07,0,0,1,1,1.59c.36.93.74,1.87,1.16,2.77a1.57,1.57,0,0,1,.16.49,5.27,5.27,0,0,0,.38,1,.73.73,0,0,1,.05.52c0,.2-.07.31-.3.33,0,0-.06.07-.08.12a.19.19,0,0,1-.32,0c-.22-.2-.42-.31-.69-.11a.27.27,0,0,1-.25,0,2.27,2.27,0,0,1-1-.81,5,5,0,0,0-.31-.56c-.72-1.47-1.34-3-1.95-4.49a5.44,5.44,0,0,0-.31-.65.66.66,0,0,0-.43.72v.18a12.29,12.29,0,0,0,0,2.5,12.51,12.51,0,0,1,0,2.37c0,.2,0,.47-.33.43-.07,0-.11.06-.11.13a1.35,1.35,0,0,0-.09.33,3.22,3.22,0,0,1-.85-.64.67.67,0,0,1-.9.13,1,1,0,0,1-.56-.92c0-.35.09-.69.07-1.05,0-1,0-2-.09-3a3.83,3.83,0,0,0-.07-.58,13.82,13.82,0,0,1-.17-3.46c.06-1.19.06-2.35.11-3.53a13.37,13.37,0,0,0,0-1.68.63.63,0,0,0,0-.33c-.25,0-.47.15-.72.13-.06-.11.14-.18,0-.27s-.06-.27.12-.33a5.55,5.55,0,0,1,2.5-.3C149.14,38.37,149.76,38.37,150.39,38.41Zm-1,7.46c.14-.06.18-.08.2-.11a18.22,18.22,0,0,0,2.11-2.28,4.71,4.71,0,0,0,.65-1.92.69.69,0,0,0-.07-.29.92.92,0,0,1-.11-.56.29.29,0,0,0-.21-.33c-.11-.05-.2-.14-.31-.2a3.66,3.66,0,0,0-1.34-.83,3.55,3.55,0,0,0-1-.07A65.74,65.74,0,0,1,149.4,45.87Z"/><path d="M156.1,51.55c-.33.14-.44-.27-.53-.47C155.9,51.11,156,51.37,156.1,51.55ZM161.63,38a1.3,1.3,0,0,1,1,.93l.4,1.28a2,2,0,0,1,0,1c0,.15-.25.15-.34.31s-.24.42-.35.65c-.14,0-.12-.2-.2-.27s-.07.24-.21.31,0,0-.06,0a2,2,0,0,1-.45-1.59,1.77,1.77,0,0,0-.07-.91c-.11-.43-.69-.94-1.09-.79-.23.07-.45.18-.67.27a1.11,1.11,0,0,0-.49.58c-.12.23-.21.63-.34.83a.93.93,0,0,0,0,1.1,11.55,11.55,0,0,1,1.64,1.94A9.07,9.07,0,0,0,161.78,45a7.9,7.9,0,0,1,1.1,1.27,3.57,3.57,0,0,0,.42.54c.54.51.52,1.23.72,1.9a6.32,6.32,0,0,1,.11,1.45.59.59,0,0,1-.27.6c-.13.07-.11.18-.13.29a4.87,4.87,0,0,1-.67,1.61.81.81,0,0,1-.56.4.54.54,0,0,0-.25.16,2.46,2.46,0,0,1-.87.63c-.09,0-.18.11-.27.06a.78.78,0,0,0-.71.12,3,3,0,0,1-2.75-.5c-.09-.06-1.41-1.32-1.46-1.38-.46-.65.72.53.27-.16a1.21,1.21,0,0,1-.18-.62c0-.27-.22-.41-.33-.61s-.16-.13-.18-.27.31-.17.45,0,.22.09.35.15.16.14.34.27.29.41.45.59a1.69,1.69,0,0,0,.8.53c.78.32,1.57,1,2.26.27a2,2,0,0,0,.51-1.48,8.12,8.12,0,0,0-.26-1.65.92.92,0,0,0-.16-.33,16.24,16.24,0,0,0-2.62-3.13,4.47,4.47,0,0,1-1.43-1.93,10.35,10.35,0,0,1-.36-1,1.29,1.29,0,0,1,0-.59c.18-.62.27-1.29.51-1.9a4.33,4.33,0,0,1,1.7-2,1,1,0,0,1,.76-.15,4.33,4.33,0,0,0,1.18-.14A4.7,4.7,0,0,1,161.63,38Zm-2.4,8c.07,0-.17-.5-.33-.67s-.47-.41-.52-.56a3.27,3.27,0,0,0-.91-.58A8.19,8.19,0,0,0,159.23,46Z"/></svg>